<svg xmlns="http://www.w3.org/2000/svg" viewBox="0 0 128 128">
  <!-- Background circle -->
  <rect width="128" height="128" rx="24" fill="#2563eb"/>

  <!-- Document body -->
  <path d="M36 20 L72 20 L96 44 L96 104 C96 108.4 92.4 112 88 112 L40 112 C35.6 112 32 108.4 32 104 L32 28 C32 23.6 35.6 20 40 20 Z" fill="white" rx="4"/>

  <!-- Document fold corner -->
  <path d="M72 20 L72 44 L96 44 Z" fill="#e8e8e8"/>

  <!-- Markdown lines -->
  <rect x="46" y="56" width="36" height="4" rx="2" fill="#d0d5dd"/>
  <rect x="46" y="68" width="28" height="4" rx="2" fill="#d0d5dd"/>
  <rect x="46" y="80" width="32" height="4" rx="2" fill="#d0d5dd"/>

  <!-- Download arrow -->
  <path d="M68 86 L68 98 L62 98 L78 112 L94 98 L88 98 L88 86 Z" fill="#2563eb"/>

  <!-- MD badge -->
  <rect x="42" y="44" width="20" height="12" rx="3" fill="#2563eb"/>
  <text x="52" y="53.5" font-family="Arial, sans-serif" font-size="9" font-weight="bold" fill="white" text-anchor="middle">MD</text>
</svg>